<?xml version="1.0" encoding="UTF-8" standalone="no"?>
<svg
        xmlns:dc="http://purl.org/dc/elements/1.1/"
        xmlns:cc="http://creativecommons.org/ns#"
        xmlns:rdf="http://www.w3.org/1999/02/22-rdf-syntax-ns#"
        xmlns="http://www.w3.org/2000/svg"
        xmlns:sodipodi="http://sodipodi.sourceforge.net/DTD/sodipodi-0.dtd"
        xmlns:inkscape="http://www.inkscape.org/namespaces/inkscape"
        width="229.36742mm"
        height="229.36742mm"
        viewBox="0 0 229.36741 229.36742"
        version="1.1"
        id="svg8"
        inkscape:version="1.0.1 (3bc2e813f5, 2020-09-07)"
        sodipodi:docname="DaD_Favicon.svg">
    <defs
            id="defs2"/>
    <sodipodi:namedview
            id="base"
            pagecolor="#ffffff"
            bordercolor="#666666"
            borderopacity="1.0"
            inkscape:pageopacity="0.0"
            inkscape:pageshadow="2"
            inkscape:zoom="0.7"
            inkscape:cx="280.53428"
            inkscape:cy="435.69523"
            inkscape:document-units="mm"
            inkscape:current-layer="layer2"
            inkscape:document-rotation="0"
            showgrid="false"
            inkscape:window-width="1920"
            inkscape:window-height="1177"
            inkscape:window-x="-8"
            inkscape:window-y="-8"
            inkscape:window-maximized="1"
            fit-margin-top="0"
            fit-margin-left="0"
            fit-margin-right="0"
            fit-margin-bottom="0"/>
    <metadata
            id="metadata5">
        <rdf:RDF>
            <cc:Work
                    rdf:about="">
                <dc:format>image/svg+xml</dc:format>
                <dc:type
                        rdf:resource="http://purl.org/dc/dcmitype/StillImage"/>
                <dc:title></dc:title>
            </cc:Work>
        </rdf:RDF>
    </metadata>
    <g
            inkscape:groupmode="layer"
            id="layer2"
            inkscape:label="Layer 2"
            style="display:inline;opacity:1"
            transform="translate(-16.704596,-32.932872)">
        <g
                id="g899"
                transform="translate(37.658674)">
            <path
                    id="path850"
                    style="fill:#c17db4;fill-opacity:1;stroke:none;stroke-width:3.77953;stroke-linecap:round;stroke-linejoin:round;stroke-miterlimit:4;stroke-dasharray:none;paint-order:stroke fill markers;stop-color:#000000"
                    d="m 265.30664,124.4707 c -1.56118,-1.6e-4 -3.12336,0.0112 -4.6875,0.0312 -48.43305,0.62009 -100.45224,1.71635 -144.45117,21.97071 -15.6261,7.19328 -31.348398,20.47714 -40.406251,35.10156 -9.675364,15.62143 -10.731731,33.4492 -12.123047,51.77148 -1.329249,17.50493 0.306111,34.52711 1.103516,52.02149 4.037302,88.57485 19.362148,215.10929 33.242187,321.73437 7.453085,57.25391 13.885015,114.8044 28.285155,170.7168 6.40073,24.85251 9.54055,35.00638 17.67774,59.3457 10.63586,31.81319 49.59331,38.46945 75.76171,39.14258 44.37899,1.14157 91.96071,-5.30506 128.56641,-18.26758 0.67101,8.94374 1.42388,17.61647 2.24805,24.33008 2.02017,16.45618 2.39615,33.61127 8.58594,48.99219 12.45479,30.94874 30.06545,51.00058 61.47042,57.15932 50.96428,9.99445 81.08533,-7.0038 99.0106,-39.84432 6.72979,-12.3295 17.93733,-41.15435 18.31585,-55.19586 0.89146,-33.07051 -0.0926,-97.70336 -0.66211,-129.02344 23.15758,-18.36241 43.31133,-44.59308 57.67383,-61.0957 63.70062,-73.19247 69.20279,-260.39614 4.35547,-386.17378 -19.7373,-38.28239 -48.16659,-71.30526 -80.05469,-100.25781 -33.40842,-30.3329 -74.08978,-52.93068 -117.93555,-68.4375 -40.68098,-14.38753 -87.5801,-24.01638 -135.97656,-24.02149 z"
                    transform="scale(0.26458333)"
                    sodipodi:nodetypes="scsssssssscssssscsssss"/>
            <path
                    id="path850-0"
                    style="display:inline;fill:#ffd0f6;fill-opacity:1;stroke:none;stroke-width:3.77953;stroke-linecap:round;stroke-linejoin:round;stroke-miterlimit:4;stroke-dasharray:none;paint-order:stroke fill markers;stop-color:#000000"
                    d="m 287.57227,186.28516 c -1.23222,-0.01 -2.46775,-0.006 -3.70704,0.01 -38.37419,0.48814 -93.16245,-2.21971 -128.02343,13.72461 -12.38079,5.66259 -18.33701,7.03838 -25.51368,18.55078 -7.66592,12.29727 -3.216,36.12545 -4.31835,50.54883 -1.05319,13.77996 2.02836,32.53889 2.66015,46.31055 3.19882,69.72653 20.61756,247.9524 36.21485,331.15625 10.26466,54.75689 18.52296,82.89752 21.99218,103.72461 7.50623,45.06285 35.75635,38.57491 71.64453,36.62304 36.83227,-2.00318 69.47793,-10.99341 98.97657,-22.21679 10.89159,-4.14398 20.1298,-8.80806 29.47656,-11.03321 4.51074,-1.07385 9.84552,0.71014 12.12305,2.60157 3.50539,2.91114 3.70912,6.65854 3.75976,11.21484 l 1.07031,96.42773 c 0.24341,21.89677 16.94197,41.17705 37.85743,40.71485 24.6068,-0.5438 36.96883,-20.65468 36.78711,-42.14258 l -1.3125,-155.19141 c 20.40896,-14.89973 49.26412,-45.19395 64.33203,-64.25976 54.17986,-68.55519 58.91031,-208.81566 7.02148,-299.71289 -16.82173,-29.46776 -36.73461,-52.20255 -62,-74.99414 -26.46996,-23.8782 -59.05922,-45.95507 -93.79883,-58.16211 C 360.58233,198.854 325.77083,186.5827 287.57227,186.2854 Z"
                    transform="scale(0.26458333)"
                    sodipodi:nodetypes="scssssssssssccsscsssss"/>
            <path
                    style="fill:none;stroke:#f2a9e4;stroke-width:5;stroke-linecap:round;stroke-linejoin:round;stroke-miterlimit:4;stroke-dasharray:none;stroke-opacity:1;paint-order:stroke fill markers;stop-color:#000000"
                    d="m 55.939216,200.26345 c -0.01708,0.0176 0.611769,1.04345 1.572556,1.71528 0.824967,0.57686 1.930564,0.80525 2.671643,0.90991 13.727757,1.9388 39.358258,-9.35127 39.358258,-9.35127"
                    id="path879"
                    sodipodi:nodetypes="cssc"/>
            <path
                    style="fill:none;stroke:#fff8fe;stroke-width:4.99999;stroke-linecap:round;stroke-linejoin:round;stroke-miterlimit:4;stroke-dasharray:none;stroke-opacity:1;paint-order:stroke fill markers;stop-color:#000000"
                    d="m 38.17196,68.560009 c 0,0 -0.55352,-4.611962 0.165995,-6.629357 0.645014,-1.808506 2.098876,-2.567849 3.794009,-3.469658 9.662546,-5.140465 31.017585,-3.777189 41.88302,-2.461333 17.399026,2.107104 39.178846,17.044101 39.178846,17.044101"
                    id="path881"
                    sodipodi:nodetypes="csssc"/>
            <path
                    style="fill:none;stroke:#f2a9e4;stroke-width:4.99999;stroke-linecap:round;stroke-linejoin:round;stroke-miterlimit:4;stroke-dasharray:none;stroke-opacity:1;paint-order:stroke fill markers;stop-color:#000000"
                    d="m 80.27888,105.63145 c 1.797009,-2.04439 4.481325,-3.30711 6.894445,-3.40688 2.641245,-0.10921 5.012862,1.1178 6.885976,2.85071"
                    id="path883"
                    sodipodi:nodetypes="csc"/>
            <path
                    style="fill:none;stroke:#fff8fe;stroke-width:4.99999;stroke-linecap:round;stroke-linejoin:round;stroke-miterlimit:4;stroke-dasharray:none;stroke-opacity:1;paint-order:stroke fill markers;stop-color:#000000"
                    d="m 82.651795,158.16705 c 2.618082,3.68139 6.369758,4.903 9.24157,4.72964 3.928246,-0.23713 6.787576,-3.01084 8.143305,-4.9953"
                    id="path885"
                    sodipodi:nodetypes="csc"/>
            <path
                    style="fill:none;stroke:#f2a9e4;stroke-width:4.99999;stroke-linecap:round;stroke-linejoin:round;stroke-miterlimit:4;stroke-dasharray:none;stroke-opacity:1;paint-order:stroke fill markers;stop-color:#000000"
                    d="m 112.81024,233.12124 c 3.25992,2.21946 5.95338,1.28891 8.40755,-0.22298"
                    id="path887"
                    sodipodi:nodetypes="cc"/>
            <path
                    style="fill:#ffd0f6;fill-opacity:1;stroke:#c17db4;stroke-width:15;stroke-linecap:round;stroke-linejoin:round;stroke-miterlimit:4;stroke-dasharray:none;stroke-opacity:1;paint-order:stroke fill markers;stop-color:#000000"
                    d="m 87.829201,115.06733 3.071691,34.83581"
                    id="path889"
                    sodipodi:nodetypes="cc"/>
        </g>
    </g>
</svg>
